<svg xmlns="http://www.w3.org/2000/svg" viewBox="0 0 150 150" fill="none" stroke="currentColor" stroke-width="1" stroke-linecap="round" stroke-linejoin="round" opacity="0.6">
  <!-- Corner botanical decoration -->
  <path d="M10 140 C30 120 50 100 70 80" />
  <path d="M70 80 C60 70 50 60 45 45" />
  <path d="M70 80 C80 70 90 65 105 60" />
  <path d="M45 45 C40 35 45 25 55 20" />
  <path d="M45 45 C35 40 25 45 20 55" />
  <path d="M105 60 C115 50 125 45 140 40" />
  <path d="M105 60 C110 70 105 80 95 85" />

  <!-- Small decorative elements -->
  <circle cx="55" cy="20" r="3" fill="#E84A8A" stroke="none" />
  <circle cx="140" cy="40" r="3" fill="#E84A8A" stroke="none" />
  <circle cx="20" cy="55" r="2" fill="#C4785A" stroke="none" />
</svg>
