<svg xmlns="http://www.w3.org/2000/svg" viewBox="0 0 150 250" fill="none" stroke="#C4785A" stroke-width="1.5" stroke-linecap="round" stroke-linejoin="round">
  <!-- Wildflower line drawing -->
  <!-- Stem -->
  <path d="M75 240 C75 200 80 160 75 120" />
  <path d="M75 180 C60 170 45 175 35 185" />
  <path d="M75 200 C90 190 105 195 115 205" />

  <!-- Flower head -->
  <circle cx="75" cy="90" r="25" stroke-width="1" />
  <circle cx="75" cy="90" r="12" fill="#E84A8A" stroke="none" opacity="0.3" />

  <!-- Petals -->
  <path d="M75 65 C70 50 75 35 80 25 C85 35 90 50 85 65" />
  <path d="M100 75 C115 70 125 75 135 80 C125 85 115 90 100 85" />
  <path d="M100 105 C115 110 125 105 135 100 C125 95 115 90 100 95" />
  <path d="M75 115 C70 130 75 145 80 155 C85 145 90 130 85 115" />
  <path d="M50 105 C35 110 25 105 15 100 C25 95 35 90 50 95" />
  <path d="M50 75 C35 70 25 75 15 80 C25 85 35 90 50 85" />

  <!-- Small leaves -->
  <path d="M35 185 C30 175 25 165 30 155" />
  <path d="M115 205 C120 195 125 185 120 175" />
</svg>
